<svg height="380.788655" viewBox="0 0 100 145.03677" width="262.612866" xmlns="http://www.w3.org/2000/svg"><g transform="translate(-11.334708 -522.12918)"><path d="m44.489438 563.81864h-29.917028l12.565108-37.99556c.724969-2.16803 1.822606-3.1939 3.959028-3.1939h27.038481z"/><path d="m62.683556 522.62918h35.294502c2.167722 0 4.061262 1.29376 3.999742 3.87338v19.88005c0 2.26027-1.69596 3.79045-3.916793 3.79045h-44.514067z"/><path d="m14.517461 568.11448 11.173784 22.83074c.939069 2.17053 2.724923 4.58678 6.499035 4.58678h29.229796c30.384313 0 45.142514 28.53988 42.958334 45.86434 0 0 6.4563-10.04641 6.4563-24.62965 0-26.49499-22.822149-48.65221-48.656546-48.65221z"/><path d="m63.69434 666.66595v-30.57623c10.325024-1.44079 16.595341-9.5326 16.595341-18.85221 0-7.22029-3.916363-12.70053-9.59061-16.13131 14.334081 2.93592 29.138991 17.44427 29.138991 34.62773 0 14.09172-10.029816 29.26107-36.143722 30.93202z"/><path d="m58.893115 636.08972v30.57623c-30.199356-1.86439-47.058407-26.54934-47.058407-48.91213 0-2.60325 1.576566-4.2804 3.847376-4.2804h22.738228c2.199943 0 3.606777 1.68774 3.710948 3.83191.162168 8.43975 5.447099 16.63577 16.761855 18.78439z"/></g></svg>